<?xml version="1.0" encoding="utf-8"?>
<!-- Svg Vector Icons : http://www.onlinewebfonts.com/icon -->
<!DOCTYPE svg PUBLIC "-//W3C//DTD SVG 1.1//EN" "http://www.w3.org/Graphics/SVG/1.1/DTD/svg11.dtd">
<svg version="1.1" xmlns="http://www.w3.org/2000/svg" xmlns:xlink="http://www.w3.org/1999/xlink" x="0px" y="0px" viewBox="0 0 1000 1000" enable-background="new 0 0 1000 1000" xml:space="preserve">
<metadata> Svg Vector Icons : http://www.onlinewebfonts.com/icon </metadata>
<g><path d="M431.4,7c50.5,0,96.3,20.6,129.6,53.8l0,0c33.2,33.2,53.7,79.1,53.7,129.7c0,50.7-20.6,96.5-53.7,129.8l-2.4,2.1c-32.7,31.7-77.3,51.3-126.4,51.6H48c-20.9,0-38-17-38-38C10,315,27.1,298,48,298h234.7c-22-30.3-34.9-67.4-34.9-107.5c0-50.6,20.7-96.4,53.8-129.7C334.8,27.6,380.6,7.1,431.4,7L431.4,7L431.4,7L431.4,7z M507.3,114.3C488,95,461.1,83,431.4,83c-29.7,0-56.5,12-76,31.5c-19.4,19.5-31.5,46.3-31.5,76c0,29.7,12,56.6,31.5,76c19.1,19.2,45.5,31.2,74.5,31.6h2.4c28.6-0.3,54.4-11.7,73.5-29.9l1.6-1.7c19.4-19.4,31.5-46.2,31.5-76C538.8,160.8,526.7,133.9,507.3,114.3L507.3,114.3L507.3,114.3L507.3,114.3z M806.7,171.2c-50.6,0-96.4,20.6-129.7,53.7c-33.3,33.2-53.7,79.1-53.7,129.7c0,40.1,12.9,77.2,34.7,107.4H48c-20.9,0-38,17.1-38,38.1c0,21,17.1,38,38,38h759.6c50.2-0.4,95.8-20.9,128.7-53.8c33.2-33.2,53.7-79,53.7-129.7c0-50.6-20.5-96.6-53.7-129.7C903.2,191.7,857.4,171.2,806.7,171.2L806.7,171.2L806.7,171.2L806.7,171.2z M882.7,278.6c19.4,19.5,31.5,46.3,31.5,76s-12.2,56.5-31.5,75.9c-19.2,19.2-45.8,31.2-75,31.5h-2.4c-29-0.4-55.4-12.3-74.6-31.5c-19.4-19.4-31.4-46.3-31.4-75.9c0-29.6,12-56.5,31.4-76c19.5-19.4,46.3-31.5,76-31.5C836.3,247.1,863.3,259.2,882.7,278.6L882.7,278.6L882.7,278.6z M529.1,917c29.8,0,56.5-12,76-31.3l0.2-0.2c19.3-19.4,31.3-46.3,31.3-76c0-29.7-12-56.5-31.5-76l-1.4-1.6c-19.1-18.3-45-29.7-73.6-30h-2.4c-28.9,0.4-55.4,12.4-74.5,31.5l-1.7,1.7c-18.4,19.1-29.7,45.5-29.7,74.3c0,29.7,12,56.5,31.4,76.1v-0.1C472.6,905,499.5,917,529.1,917L529.1,917L529.1,917z M658.8,939.2c-33.2,33.2-79.1,53.8-129.6,53.8c-50.6,0-96.5-20.5-129.8-53.8l0.1-0.1h-0.1c-33.1-33.1-53.7-79-53.7-129.6c0-40.1,12.9-77.2,34.9-107.4H48c-20.9,0-38-17-38-38c0-21,17.1-37.9,38-37.9h482.1c49.1,0.3,93.7,19.9,126.6,51.8l2.2,1.9c33.1,33.2,53.8,79,53.8,129.7c0,50.2-20.4,95.8-53.2,129l-0.5,0.5L658.8,939.2L658.8,939.2L658.8,939.2z"/></g>
</svg>